<svg width="18" height="18" viewBox="0 0 18 18" fill="none" xmlns="http://www.w3.org/2000/svg">
<path fill-rule="evenodd" clip-rule="evenodd" d="M6.16496 1.85998C6.29537 1.66437 6.51491 1.54688 6.75 1.54688H11.25C11.4851 1.54688 11.7046 1.66437 11.835 1.85998L13.1263 3.79688H15.75C16.3343 3.79688 16.8947 4.02899 17.3078 4.44216C17.721 4.85532 17.9531 5.41569 17.9531 6V14.25C17.9531 14.8343 17.721 15.3947 17.3078 15.8078C16.8947 16.221 16.3343 16.4531 15.75 16.4531H2.25C1.66569 16.4531 1.10532 16.221 0.692155 15.8078C0.278989 15.3947 0.046875 14.8343 0.046875 14.25V6C0.046875 5.4157 0.278989 4.85532 0.692155 4.44216C1.10532 4.02899 1.66569 3.79688 2.25 3.79688H4.8737L6.16496 1.85998ZM7.1263 2.95312L5.83503 4.89002C5.70463 5.08563 5.48509 5.20312 5.25 5.20312H2.25C2.03866 5.20312 1.83597 5.28708 1.68652 5.43652C1.53708 5.58597 1.45312 5.78866 1.45312 6V14.25C1.45312 14.4613 1.53708 14.664 1.68652 14.8135C1.83597 14.9629 2.03866 15.0469 2.25 15.0469H15.75C15.9613 15.0469 16.164 14.9629 16.3135 14.8135C16.4629 14.664 16.5469 14.4613 16.5469 14.25V6C16.5469 5.78866 16.4629 5.58597 16.3135 5.43652C16.164 5.28708 15.9613 5.20312 15.75 5.20312H12.75C12.5149 5.20312 12.2954 5.08563 12.165 4.89002L10.8737 2.95312H7.1263Z" fill="#5B6CFF"/>
<path fill-rule="evenodd" clip-rule="evenodd" d="M9 7.45312C7.73147 7.45312 6.70312 8.48147 6.70312 9.75C6.70312 11.0185 7.73147 12.0469 9 12.0469C10.2685 12.0469 11.2969 11.0185 11.2969 9.75C11.2969 8.48147 10.2685 7.45312 9 7.45312ZM5.29688 9.75C5.29688 7.70482 6.95482 6.04688 9 6.04688C11.0452 6.04688 12.7031 7.70482 12.7031 9.75C12.7031 11.7952 11.0452 13.4531 9 13.4531C6.95482 13.4531 5.29688 11.7952 5.29688 9.75Z" fill="#5B6CFF"/>
</svg>
