<svg width="121" height="111" viewBox="0 0 121 111" fill="none" xmlns="http://www.w3.org/2000/svg">
<path d="M10.5696 103H2.3196V79.7273H10.6378C12.9787 79.7273 14.9938 80.1932 16.6832 81.125C18.3726 82.0492 19.6719 83.3788 20.581 85.1136C21.4976 86.8485 21.956 88.9242 21.956 91.3409C21.956 93.7652 21.4976 95.8485 20.581 97.5909C19.6719 99.3333 18.3651 100.67 16.6605 101.602C14.9635 102.534 12.9332 103 10.5696 103ZM7.24006 98.7841H10.3651C11.8196 98.7841 13.0431 98.5265 14.0355 98.0114C15.0355 97.4886 15.7855 96.6818 16.2855 95.5909C16.7931 94.4924 17.0469 93.0758 17.0469 91.3409C17.0469 89.6212 16.7931 88.2159 16.2855 87.125C15.7855 86.0341 15.0393 85.2311 14.0469 84.7159C13.0545 84.2008 11.831 83.9432 10.3764 83.9432H7.24006V98.7841ZM33.3963 103.341C31.6312 103.341 30.1046 102.966 28.8168 102.216C27.5365 101.458 26.5478 100.405 25.8509 99.0568C25.1539 97.7008 24.8054 96.1288 24.8054 94.3409C24.8054 92.5379 25.1539 90.9621 25.8509 89.6136C26.5478 88.2576 27.5365 87.2045 28.8168 86.4545C30.1046 85.697 31.6312 85.3182 33.3963 85.3182C35.1615 85.3182 36.6842 85.697 37.9645 86.4545C39.2524 87.2045 40.2448 88.2576 40.9418 89.6136C41.6387 90.9621 41.9872 92.5379 41.9872 94.3409C41.9872 96.1288 41.6387 97.7008 40.9418 99.0568C40.2448 100.405 39.2524 101.458 37.9645 102.216C36.6842 102.966 35.1615 103.341 33.3963 103.341ZM33.419 99.5909C34.2221 99.5909 34.8925 99.3636 35.4304 98.9091C35.9683 98.447 36.3736 97.8182 36.6463 97.0227C36.9266 96.2273 37.0668 95.322 37.0668 94.3068C37.0668 93.2917 36.9266 92.3864 36.6463 91.5909C36.3736 90.7955 35.9683 90.1667 35.4304 89.7045C34.8925 89.2424 34.2221 89.0114 33.419 89.0114C32.6084 89.0114 31.9266 89.2424 31.3736 89.7045C30.8281 90.1667 30.4152 90.7955 30.1349 91.5909C29.8622 92.3864 29.7259 93.2917 29.7259 94.3068C29.7259 95.322 29.8622 96.2273 30.1349 97.0227C30.4152 97.8182 30.8281 98.447 31.3736 98.9091C31.9266 99.3636 32.6084 99.5909 33.419 99.5909ZM45.1349 103V85.5455H49.7486V88.625H49.9531C50.3168 87.6023 50.9228 86.7955 51.7713 86.2045C52.6198 85.6136 53.6349 85.3182 54.8168 85.3182C56.0137 85.3182 57.0327 85.6174 57.8736 86.2159C58.7145 86.8068 59.2751 87.6098 59.5554 88.625H59.7372C60.0933 87.625 60.7372 86.8258 61.669 86.2273C62.6084 85.6212 63.7183 85.3182 64.9986 85.3182C66.6274 85.3182 67.9493 85.8371 68.9645 86.875C69.9872 87.9053 70.4986 89.3674 70.4986 91.2614V103H65.669V92.2159C65.669 91.2462 65.4115 90.5189 64.8963 90.0341C64.3812 89.5492 63.7372 89.3068 62.9645 89.3068C62.0857 89.3068 61.4001 89.5871 60.9077 90.1477C60.4152 90.7008 60.169 91.4318 60.169 92.3409V103H55.4759V92.1136C55.4759 91.2576 55.2296 90.5758 54.7372 90.0682C54.2524 89.5606 53.6122 89.3068 52.8168 89.3068C52.2789 89.3068 51.794 89.4432 51.3622 89.7159C50.938 89.9811 50.6009 90.3561 50.3509 90.8409C50.1009 91.3182 49.9759 91.8788 49.9759 92.5227V103H45.1349ZM74.3224 103V85.5455H78.9361V88.625H79.1406C79.5043 87.6023 80.1103 86.7955 80.9588 86.2045C81.8073 85.6136 82.8224 85.3182 84.0043 85.3182C85.2012 85.3182 86.2202 85.6174 87.0611 86.2159C87.902 86.8068 88.4626 87.6098 88.7429 88.625H88.9247C89.2808 87.625 89.9247 86.8258 90.8565 86.2273C91.7959 85.6212 92.9058 85.3182 94.1861 85.3182C95.8149 85.3182 97.1368 85.8371 98.152 86.875C99.1747 87.9053 99.6861 89.3674 99.6861 91.2614V103H94.8565V92.2159C94.8565 91.2462 94.599 90.5189 94.0838 90.0341C93.5687 89.5492 92.9247 89.3068 92.152 89.3068C91.2732 89.3068 90.5876 89.5871 90.0952 90.1477C89.6027 90.7008 89.3565 91.4318 89.3565 92.3409V103H84.6634V92.1136C84.6634 91.2576 84.4171 90.5758 83.9247 90.0682C83.4399 89.5606 82.7997 89.3068 82.0043 89.3068C81.4664 89.3068 80.9815 89.4432 80.5497 89.7159C80.1255 89.9811 79.7884 90.3561 79.5384 90.8409C79.2884 91.3182 79.1634 91.8788 79.1634 92.5227V103H74.3224ZM111.464 103.341C109.669 103.341 108.124 102.977 106.828 102.25C105.54 101.515 104.548 100.477 103.851 99.1364C103.154 97.7879 102.805 96.1932 102.805 94.3523C102.805 92.5568 103.154 90.9811 103.851 89.625C104.548 88.2689 105.529 87.2121 106.794 86.4545C108.067 85.697 109.559 85.3182 111.271 85.3182C112.423 85.3182 113.495 85.5038 114.487 85.875C115.487 86.2386 116.358 86.7879 117.101 87.5227C117.851 88.2576 118.434 89.1818 118.851 90.2955C119.268 91.4015 119.476 92.697 119.476 94.1818V95.5114H104.737V92.5114H114.919C114.919 91.8144 114.768 91.197 114.464 90.6591C114.161 90.1212 113.741 89.7008 113.203 89.3977C112.673 89.0871 112.055 88.9318 111.351 88.9318C110.616 88.9318 109.964 89.1023 109.396 89.4432C108.836 89.7765 108.396 90.2273 108.078 90.7955C107.76 91.3561 107.597 91.9811 107.589 92.6705V95.5227C107.589 96.3864 107.749 97.1326 108.067 97.7614C108.393 98.3902 108.851 98.875 109.442 99.2159C110.033 99.5568 110.733 99.7273 111.544 99.7273C112.082 99.7273 112.574 99.6515 113.021 99.5C113.468 99.3485 113.851 99.1212 114.169 98.8182C114.487 98.5152 114.73 98.1439 114.896 97.7045L119.374 98C119.146 99.0758 118.68 100.015 117.976 100.818C117.279 101.614 116.377 102.235 115.271 102.682C114.173 103.121 112.904 103.341 111.464 103.341Z" fill="#2A2E52"/>
<rect x="33" width="56" height="56" rx="4" fill="#5B6CFF"/>
<rect x="39" y="6" width="19" height="19" rx="2" fill="white"/>
<rect x="39" y="31" width="19" height="19" rx="2" fill="white"/>
<rect x="64" y="6" width="19" height="19" rx="2" fill="white"/>
<rect x="64" y="31" width="19" height="19" rx="2" fill="white"/>
</svg>
